<?xml version="1.0" encoding="utf-8"?>
<!-- Generator: Adobe Illustrator 22.1.0, SVG Export Plug-In . SVG Version: 6.00 Build 0)  -->
<svg version="1.1" id="Layer_1" xmlns="http://www.w3.org/2000/svg" xmlns:xlink="http://www.w3.org/1999/xlink" x="0px" y="0px"
	 viewBox="0 0 100 100" style="enable-background:new 0 0 100 100;" xml:space="preserve">
<style type="text/css">
	.st0{fill:#3A4D95;}
	.st1{fill:#02A569;}
</style>
<g id="Layer_1_1_">
	<g>
		<g>
			<path class="st0" d="M44.6,64.7c-2,0-3.7-1.1-5-3.3c-1.2-2.1-3-3.1-5.3-3.1c-3.9,0-6.2-2.4-6.3-6.3c0-2.4-1-4-3.1-5.3
				c-3.4-2-4.2-5.1-2.3-8.6c1.2-2.1,1.2-4,0-6.1c-2-3.4-1.1-6.5,2.3-8.6c2.1-1.2,3.1-3,3.1-5.3c0.1-3.9,2.4-6.2,6.3-6.2
				c2.4,0,4-1,5.3-3.1c2-3.4,5.1-4.2,8.6-2.3c2.1,1.2,4,1.2,6.1,0c3.4-1.9,6.5-1.1,8.6,2.3C64,11,65.7,12,68.2,12
				c3.9,0,6.2,2.4,6.3,6.2c0,2.4,1,4,3.1,5.3c3.4,2,4.2,5.1,2.3,8.6c-1.2,2.1-1.2,4,0,6.1c1.9,3.4,1.1,6.5-2.3,8.6
				c-2.1,1.2-3.1,2.9-3.1,5.3c-0.1,3.9-2.4,6.2-6.3,6.3c-2.4,0-4,1-5.3,3.1c-2,3.4-5.1,4.2-8.6,2.3c-2.1-1.2-4-1.2-6.1,0
				C46.9,64.3,45.7,64.7,44.6,64.7z M44.6,9.1c-0.8,0-1.5,0.5-2.1,1.6c-1.9,3.1-4.6,4.7-8.3,4.7c-2,0-2.8,0.8-2.9,2.9
				c-0.1,3.6-1.7,6.4-4.7,8.3c-1.8,1.1-2,2.1-1,3.8c1.8,3.2,1.8,6.4,0,9.6c-1,1.8-0.7,2.8,1,3.8c3.1,1.8,4.7,4.6,4.7,8.2
				c0,2.1,0.8,2.8,2.8,2.9c3.5,0,6.4,1.7,8.3,4.7c1.1,1.8,2.1,2.1,3.8,1c3.2-1.8,6.4-1.8,9.6,0c1.8,1,2.8,0.8,3.8-1l0,0
				c1.9-3.1,4.7-4.7,8.3-4.7c2.1,0,2.8-0.8,2.9-2.9c0.1-3.5,1.7-6.4,4.7-8.2c1.8-1.1,2.1-2.1,1-3.8c-1.8-3.2-1.8-6.4,0-9.6
				c1-1.8,0.7-2.8-1-3.8c-3.2-1.9-4.7-4.6-4.7-8.3c0-2.1-0.8-2.8-2.9-2.9c-3.6-0.1-6.4-1.7-8.3-4.7c-1.1-1.8-2.1-2.1-3.8-1
				c-3.2,1.8-6.4,1.8-9.6,0C45.7,9.3,45.1,9.1,44.6,9.1z"/>
		</g>
		<g>
			<path class="st0" d="M51.1,52.5c-9.6,0-17.3-7.8-17.3-17.3s7.8-17.3,17.3-17.3s17.3,7.8,17.3,17.3S60.7,52.5,51.1,52.5z
				 M51.1,21.3c-7.6,0-13.8,6.2-13.8,13.8s6.2,13.8,13.8,13.8s13.8-6.2,13.8-13.8S58.7,21.3,51.1,21.3z"/>
		</g>
		<g>
			<path class="st0" d="M28.7,93.5c-0.6,0-1.1-0.3-1.5-0.8l-4.8-7.3l-8.8,1c-0.6,0.1-1.3-0.2-1.7-0.8c-0.4-0.5-0.4-1.2-0.1-1.8
				l12.2-24c0.3-0.6,1-1,1.7-1c0.6,0.1,1.2,0.5,1.5,1c0.2,0.1,0.7,0.4,2,0.4l0,0c4.7,0.1,6.3,2.5,7.5,4.1c0.9,1.3,1.4,2,3.1,2.1
				c0.2,0,0.4,0,0.6,0.1c0.9,0.2,1.5,1,1.4,1.9c0,0.3-0.1,0.5-0.2,0.7c-0.6,1.1-7,14.5-11.2,23.3c-0.3,0.6-0.8,1-1.5,1
				C28.8,93.5,28.7,93.5,28.7,93.5z M23.2,81.8c0.6,0,1.1,0.3,1.5,0.8l3.7,5.6c1.1-2.3,2.7-5.6,4.3-9c1.4-3,2.9-5.9,3.8-8.1
				c0.3-0.6,0.6-1.2,0.8-1.6c-1.9-0.7-2.9-2.1-3.5-3.2c-1-1.5-1.8-2.6-4.6-2.6c-1.3,0-2.3-0.2-3-0.5l-9.9,19.3l6.6-0.8
				C23,81.8,23.1,81.8,23.2,81.8z M39.9,70c0.7,0,1.3-0.3,1.6-0.8C41.1,69.7,40.5,70,39.9,70L39.9,70z M27.3,60.1L27.3,60.1
				L27.3,60.1z M27.3,60.1L27.3,60.1L27.3,60.1z M27.3,60.1L27.3,60.1L27.3,60.1z M27.3,60.1L27.3,60.1L27.3,60.1z"/>
		</g>
		<g>
			<path class="st0" d="M73.6,94.4c-0.6,0-1.2-0.3-1.5-0.9L58.2,69.7c-0.3-0.6-0.3-1.3,0.1-1.9c0.4-0.6,1.1-0.9,1.7-0.7
				c0.1,0,2.1,0.3,3.7-1.5c0-0.1,0.1-0.1,0.2-0.1c0.3-0.2,0.4-0.5,0.7-1c1.1-2,2.5-3.6,9.5-4.3c0.7-0.1,1.4,0.3,1.7,0.9l12.4,23.2
				c0.3,0.6,0.3,1.3-0.1,1.8s-1,0.8-1.7,0.8l-8.3-1.1l-2.9,7.5C75,93.9,74.4,94.4,73.6,94.4C73.7,94.4,73.6,94.4,73.6,94.4z
				 M62.7,70.3l10.6,18.3l2.1-5.4c0.3-0.8,1.1-1.2,1.9-1.1l6.3,0.8L73.3,63.8c-4.6,0.6-5.1,1.5-5.6,2.4c-0.3,0.6-0.7,1.2-1.4,1.9
				C65.1,69.3,63.7,69.9,62.7,70.3z"/>
		</g>
		<g>
			<g>
				<g>
					<path class="st1" d="M59.7,29.8c-0.6-0.8-1.8-0.9-2.6-0.3l-7.3,6.3L48,33.7c-0.7-0.8-1.8-0.9-2.6-0.2s-0.9,1.8-0.2,2.6l3,3.5
						c0.4,0.4,0.9,0.6,1.4,0.6c0.4,0,0.8-0.1,1.2-0.4l8.7-7.4C60.2,31.7,60.3,30.6,59.7,29.8z"/>
				</g>
			</g>
		</g>
	</g>
</g>
</svg>
