<?xml version="1.0" encoding="utf-8"?>
<!-- Generator: Adobe Illustrator 22.1.0, SVG Export Plug-In . SVG Version: 6.00 Build 0)  -->
<svg version="1.1" id="Layer_1" xmlns="http://www.w3.org/2000/svg" xmlns:xlink="http://www.w3.org/1999/xlink" x="0px" y="0px"
	 viewBox="0 0 100 100" style="enable-background:new 0 0 100 100;" xml:space="preserve">
<style type="text/css">
	.st0{fill:#3A4D95;}
	.st1{fill:#02A569;stroke:#02A569;stroke-width:0.9758;stroke-miterlimit:10;}
</style>
<g id="Layer_1_1_">
	<g>
		<path class="st0" d="M93.4,62.7L82,56.6c-0.2-0.2-0.5-0.2-0.7-0.2s-0.5,0-0.8,0.2l-11,6.1c-0.5,0.2-0.8,0.8-0.8,1.3v8.7
			c0,6.8,4.1,13.1,10.4,15.9l1.4,0.6c0.2,0.2,0.5,0.2,0.7,0.2h0.4l1.9-0.7c6.4-2.7,10.6-9,10.6-16V64C94.1,63.4,93.8,63,93.4,62.7z
			 M91.4,64.7v7.7c0,5.9-3.5,11-8.9,13.3l-1.2,0.6l-1-0.4c-5.4-2.3-8.8-7.6-8.8-13.3v-7.8l9.8-5.4L91.4,64.7z"/>
		<path class="st1" d="M79.7,77.1c-0.3,0-0.5-0.1-0.7-0.3l-3-3.5c-0.3-0.4-0.3-1,0.1-1.3c0.2-0.2,0.5-0.2,0.6-0.2
			c0.3,0,0.5,0.1,0.7,0.3l2.4,2.8l6.2-5.2c0.2-0.2,0.4-0.2,0.6-0.2c0.3,0,0.6,0.1,0.7,0.4c0.2,0.2,0.2,0.4,0.2,0.7
			c0,0.3-0.1,0.5-0.3,0.6l-7,5.8C80.1,77,79.8,77.1,79.7,77.1z"/>
		<path class="st0" d="M24.3,44.2c-0.9,0-1.6-0.7-1.6-1.6c0-0.9,0.7-1.6,1.6-1.6h38.8c0.9,0,1.6,0.7,1.6,1.6c0,0.9-0.7,1.6-1.6,1.6
			H24.3z"/>
		<path class="st0" d="M50.2,86.9c-0.9,0-1.6-0.7-1.6-1.6V50.2c0-0.9,0.7-1.6,1.6-1.6s1.6,0.7,1.6,1.6v35.2
			C51.8,86.2,51.1,86.9,50.2,86.9z"/>
		<path class="st0" d="M63.1,86.9c-0.9,0-1.6-0.7-1.6-1.6V50.2c0-0.9,0.7-1.6,1.6-1.6s1.6,0.7,1.6,1.6v35.2
			C64.7,86.2,64,86.9,63.1,86.9z"/>
		<path class="st0" d="M37.2,86.9c-0.9,0-1.6-0.7-1.6-1.6V50.2c0-0.9,0.7-1.6,1.6-1.6s1.6,0.7,1.6,1.6v35.2
			C38.9,86.2,38.1,86.9,37.2,86.9z"/>
		<path class="st0" d="M75.5,29.8H64.6c-0.9,0-1.6-0.7-1.6-1.6s0.7-1.6,1.6-1.6H77c0.9,0,1.6,0.7,1.6,1.6v24.5h-0.1l-3,1.8V29.8z"/>
		<path class="st0" d="M24.3,86.9c-0.9,0-1.6-0.7-1.6-1.6V50.2c0-0.9,0.7-1.6,1.6-1.6s1.6,0.7,1.6,1.6v35.2
			C25.9,86.2,25.2,86.9,24.3,86.9z"/>
		<path class="st0" d="M7.5,94.2c-0.9,0-1.6-0.7-1.6-1.6S6.6,91,7.5,91H73c1.2,0.9,2.5,1.7,3.9,2.2l1.8,0.8c0.2,0.1,0.4,0.2,0.7,0.2
			l0,0h-0.1c-0.2,0-0.3,0-0.5,0C78.7,94.2,7.5,94.2,7.5,94.2z"/>
		<path class="st0" d="M10.4,83.8c-0.9,0-1.6-0.7-1.6-1.6V28.1c0-0.9,0.7-1.6,1.6-1.6h12.4c0.9,0,1.6,0.7,1.6,1.6s-0.7,1.6-1.6,1.6
			H12v52.4C12,83.1,11.3,83.8,10.4,83.8z"/>
		<path class="st0" d="M63.1,36.5c-0.3,0-0.5-0.1-0.7-0.2L43.6,27L25,36.3c-0.2,0.1-0.5,0.2-0.7,0.2c-0.6,0-1.2-0.3-1.5-0.9
			c-0.2-0.4-0.2-0.8-0.1-1.3c0.1-0.4,0.4-0.8,0.8-1L42.1,24V7.2c0-0.9,0.7-1.6,1.6-1.6h11.6c0.9,0,1.6,0.7,1.6,1.6v6.1
			c0,0.9-0.7,1.6-1.6,1.6h-10v9.5l18.5,9.2c0.4,0.2,0.7,0.5,0.8,0.9c0.1,0.4,0.1,0.9-0.1,1.3C64.2,36.2,63.8,36.5,63.1,36.5z
			 M45.3,12.6h8.4V8h-8.4C45.3,8,45.3,12.6,45.3,12.6z"/>
		<path class="st0" d="M42.1,24.2v-17c0-0.9,0.7-1.6,1.6-1.6h11.6c0.9,0,1.6,0.7,1.6,1.6v6.1c0,0.9-0.7,1.6-1.6,1.6h-10v9.5
			l-1.8-0.8L42.1,24.2z M45.3,12.6h8.4V8h-8.4C45.3,8,45.3,12.6,45.3,12.6z"/>
	</g>
</g>
</svg>
